<svg xmlns="http://www.w3.org/2000/svg" xmlns:xlink="http://www.w3.org/1999/xlink" width="24" height="24"><defs><path id="a" d="M7 2h10a2 2 0 0 1 2 2v16a2 2 0 0 1-2 2H7a2 2 0 0 1-2-2V4a2 2 0 0 1 2-2Zm0 1.5a.5.5 0 0 0-.5.5v16a.5.5 0 0 0 .5.5h10a.5.5 0 0 0 .5-.5V4a.5.5 0 0 0-.5-.5H7Zm12 10.523V20a2 2 0 0 1-2 2H7a2 2 0 0 1-2-2v-3.915l1.885-2.356A2 2 0 0 1 10 13.718l.463.57 2.794-3.49a2 2 0 0 1 3.114-.012L19 14.023Zm-1.5.533-2.293-2.824a.5.5 0 0 0-.779.003l-2.997 3.746 4.074 5.019H17a.5.5 0 0 0 .5-.5v-5.444ZM13.573 20.5l-4.738-5.837a.5.5 0 0 0-.779.003L6.5 16.611V20a.5.5 0 0 0 .5.5h6.573ZM9.5 9a1.5 1.5 0 1 0 0-3 1.5 1.5 0 0 0 0 3Z"/></defs><use xlink:href="#a" fill="currentColor"/></svg>