<svg enable-background="new 0 0 24 24" height="24" viewBox="0 0 24 24" width="24" xmlns="http://www.w3.org/2000/svg"><path d="m20 6.999h-16c-1.1 0-2 .9-2 2v9c0 1.1.9 2 2 2h16c1.1 0 2-.9 2-2v-9c0-1.1-.9-2-2-2zm.5 11c0 .3-.2.5-.5.5h-16c-.3 0-.5-.2-.5-.5v-9c0-.3.2-.5.5-.5h16c.3 0 .5.2.5.5z" fill="#191e26"/><path d="m18.078 5.999h1.929c-.224-.859-1.002-1.5-1.929-1.5h-12.164c-.926 0-1.704.641-1.929 1.5h1.929z" fill="#191e26"/><path d="m9.5 13.499c0 1.381 1.119 2.5 2.5 2.5s2.5-1.119 2.5-2.5h-2.5v-2.5c-1.381 0-2.5 1.119-2.5 2.5z" fill="none"/><g fill="#191e26"><path d="m12 9.494v.005h.048c-.016 0-.031-.005-.048-.005z"/><path d="m16 13.45v.048h.005c0-.016-.005-.031-.005-.048z"/><path d="m15.708 11.999c-.406-1.003-1.205-1.802-2.208-2.208-.449-.182-.938-.285-1.452-.292h-.048c-2.206 0-4 1.794-4 4s1.794 4 4 4 4-1.794 4-4v-.049c-.006-.513-.109-1.002-.292-1.451zm-3.708 4c-1.381 0-2.5-1.119-2.5-2.5s1.119-2.5 2.5-2.5v2.5h2.5c0 1.38-1.119 2.5-2.5 2.5z"/></g></svg>