<svg xmlns="http://www.w3.org/2000/svg" width="88" height="88" viewBox="0 0 88 88" fill="none">
<rect width="88" height="88" rx="20" fill="#5C5D6B"/>
<path d="M62 44C62 47.5601 60.9443 51.0402 58.9665 54.0003C56.9886 56.9604 54.1774 59.2675 50.8883 60.6298C47.5992 61.9922 43.98 62.3487 40.4884 61.6541C36.9967 60.9596 33.7894 59.2453 31.2721 56.7279C28.7547 54.2106 27.0404 51.0033 26.3459 47.5116C25.6513 44.02 26.0078 40.4008 27.3702 37.1117C28.7326 33.8226 31.0397 31.0114 33.9997 29.0335C36.9598 27.0557 40.4399 26 44 26" stroke="white" stroke-width="2" stroke-linecap="round" stroke-linejoin="round"/>
<path d="M56.2359 25.281C56.3618 25.0504 56.5475 24.8579 56.7735 24.7239C56.9995 24.5898 57.2574 24.519 57.5202 24.519C57.7829 24.519 58.0408 24.5898 58.2668 24.7239C58.4928 24.8579 58.6785 25.0504 58.8044 25.281L59.9389 27.3533C60.0751 27.6005 60.2755 27.8009 60.5226 27.9371L62.595 29.0696C62.8261 29.1954 63.019 29.3811 63.1534 29.6073C63.2878 29.8335 63.3587 30.0917 63.3587 30.3548C63.3587 30.6179 63.2878 30.8762 63.1534 31.1023C63.019 31.3285 62.8261 31.5143 62.595 31.6401L60.5226 32.7745C60.2755 32.9083 60.0727 33.1111 59.9389 33.3583L58.8044 35.4286C58.6785 35.6593 58.4928 35.8517 58.2668 35.9858C58.0408 36.1198 57.7829 36.1906 57.5202 36.1906C57.2574 36.1906 56.9995 36.1198 56.7735 35.9858C56.5475 35.8517 56.3618 35.6593 56.2359 35.4286L55.1015 33.3563C54.9677 33.1092 54.7648 32.9064 54.5177 32.7725L52.4454 31.6401C52.2143 31.5143 52.0214 31.3285 51.887 31.1023C51.7526 30.8762 51.6816 30.6179 51.6816 30.3548C51.6816 30.0917 51.7526 29.8335 51.887 29.6073C52.0214 29.3811 52.2143 29.1954 52.4454 29.0696L54.5177 27.9371C54.7642 27.8025 54.9669 27.5999 55.1015 27.3533L56.2359 25.281Z" stroke="white" stroke-width="2"/>
<path d="M38 38.6602V40.6602" stroke="white" stroke-width="2" stroke-linecap="round" stroke-linejoin="round"/>
<path d="M50 38.6602V40.6602" stroke="white" stroke-width="2" stroke-linecap="round" stroke-linejoin="round"/>
<path d="M50.4841 49.3159C48.7642 51.0344 46.4324 51.9998 44.0011 51.9998C41.5698 51.9998 39.2379 51.0344 37.5181 49.3159" stroke="white" stroke-width="2" stroke-linecap="round" stroke-linejoin="round"/>
</svg>