<svg xmlns="http://www.w3.org/2000/svg" width="88" height="88" viewBox="0 0 88 88" fill="none">
<rect width="88" height="88" rx="20" fill="#5C5D6B"/>
<path d="M27.7281 51.904L40.1741 39.458L48.5421 47.828L36.0981 60.272C35.5485 60.8216 34.8961 61.2575 34.178 61.555C33.46 61.8524 32.6903 62.0055 31.9131 62.0055C31.1359 62.0055 30.3663 61.8524 29.6482 61.555C28.9301 61.2575 28.2777 60.8216 27.7281 60.272C26.6182 59.1621 25.9946 57.6567 25.9946 56.087C25.9946 54.5173 26.6182 53.0119 27.7281 51.902V51.904Z" stroke="white" stroke-width="2" stroke-linecap="round" stroke-linejoin="round"/>
<path d="M58.8279 45.7722L48.5399 47.8302L40.1699 39.4602L42.2279 29.1722C42.4254 28.1833 42.9942 27.3076 43.8174 26.725C44.6406 26.1425 45.6556 25.8975 46.6539 26.0402L46.8659 26.0702C50.6681 26.6145 54.1914 28.3768 56.9074 31.0928C59.6233 33.8087 61.3856 37.332 61.9299 41.1342L61.9599 41.3462C62.1027 42.3445 61.8576 43.3596 61.2751 44.1828C60.6926 45.006 59.8169 45.5748 58.8279 45.7722V45.7722Z" stroke="white" stroke-width="2" stroke-linecap="round" stroke-linejoin="round"/>
<path d="M32 56L36 52" stroke="white" stroke-width="2" stroke-linecap="round" stroke-linejoin="round"/>
</svg>