<svg xmlns="http://www.w3.org/2000/svg" width="88" height="88" viewBox="0 0 88 88" fill="none">
<rect width="88" height="88" rx="20" fill="#5C5D6B"/>
<path d="M45.412 44.2856V35.2856C45.412 34.49 45.096 33.7269 44.5334 33.1643C43.9708 32.6017 43.2077 32.2856 42.412 32.2856C41.6164 32.2856 40.8533 32.6017 40.2907 33.1643C39.7281 33.7269 39.412 34.49 39.412 35.2856V50.2856L35.348 48.9316C34.6177 48.6869 33.8247 48.7053 33.1065 48.9835C32.3882 49.2617 31.7898 49.7823 31.4148 50.4551C31.0398 51.128 30.9118 51.9107 31.053 52.6679C31.1943 53.4252 31.5957 54.1092 32.188 54.6016L40.298 61.3596C41.02 61.9576 41.926 62.2856 42.86 62.2856H51.88C52.8552 62.2859 53.7968 61.9299 54.5279 61.2846C55.2589 60.6393 55.7291 59.7492 55.85 58.7816L56.936 50.0956C57.0642 49.0709 56.791 48.0363 56.1737 47.2083C55.5564 46.3804 54.6428 45.8233 53.624 45.6536L45.412 44.2856Z" stroke="white" stroke-width="2" stroke-linecap="round" stroke-linejoin="round"/>
<path d="M30.4202 34.2856H32.4202" stroke="white" stroke-width="2" stroke-linecap="round" stroke-linejoin="round"/>
<path d="M54.4202 34.2856H52.4202" stroke="white" stroke-width="2" stroke-linecap="round" stroke-linejoin="round"/>
<path d="M50.9002 25.8057L49.4802 27.2057" stroke="white" stroke-width="2" stroke-linecap="round" stroke-linejoin="round"/>
<path d="M33.9202 25.8057L35.3402 27.2057" stroke="white" stroke-width="2" stroke-linecap="round" stroke-linejoin="round"/>
<path d="M42.4202 22.2856V24.2856" stroke="white" stroke-width="2" stroke-linecap="round" stroke-linejoin="round"/>
</svg>